# xmcd
#
# Track frame offsets: 
#        150
#        15879
#        31142
#        54053
#        71747
#        84906
#        101840
#        119025
#        131919
#        150609
#        168811
#        189786
#
# Disc length: 2850 seconds
#
# Revision: 2
# Processed by: cddbd v1.5.2PL0 Copyright (c) Steve Scherf et al.
# Submitted via: ExactAudioCopy v1.0b1
#
DISCID=8b0b200c
DTITLE=Robert Cray - Heritage Of The Blues
DYEAR=2008
DGENRE=Contemporary Blues
TTITLE0=Phone Booth
TTITLE1=Don't Touch Me
TTITLE2=Porch Light
TTITLE3=The Last Time (I Get Burned Like This)
TTITLE4=Bad Influence
TTITLE5=Playin' In The Dirt
TTITLE6=Change Of Heart, Change Of Mind (S.O.F.T.)
TTITLE7=Got To Make A Comeback
TTITLE8=The Grinder
TTITLE9=Where Do I Go From Here
TTITLE10=Payin' For It Now
TTITLE11=I've Slipped Her Mind
EXTD=
EXTT0=
EXTT1=
EXTT2=
EXTT3=
EXTT4=
EXTT5=
EXTT6=
EXTT7=
EXTT8=
EXTT9=
EXTT10=
EXTT11=
PLAYORDER=
